<?xml version="1.0" encoding="UTF-8" standalone="no"?>
<svg
   xmlns:dc="http://purl.org/dc/elements/1.1/"
   xmlns:cc="http://creativecommons.org/ns#"
   xmlns:rdf="http://www.w3.org/1999/02/22-rdf-syntax-ns#"
   xmlns:svg="http://www.w3.org/2000/svg"
   xmlns="http://www.w3.org/2000/svg"
   xmlns:sodipodi="http://sodipodi.sourceforge.net/DTD/sodipodi-0.dtd"
   xmlns:inkscape="http://www.inkscape.org/namespaces/inkscape"
   width="200mm"
   height="200mm"
   viewBox="0 0 200 200"
   version="1.1"
   id="svg8"
   inkscape:version="1.0beta2 (2b71d25, 2019-12-03)"
   sodipodi:docname="drawing.svg">
  <defs
     id="defs2" />
  <sodipodi:namedview
     showguides="false"
     id="base"
     pagecolor="#ffffff"
     bordercolor="#666666"
     borderopacity="1.0"
     inkscape:pageopacity="0.0"
     inkscape:pageshadow="2"
     inkscape:zoom="0.50299255"
     inkscape:cx="476.00021"
     inkscape:cy="433.42389"
     inkscape:document-units="mm"
     inkscape:current-layer="layer10"
     inkscape:document-rotation="0"
     showgrid="false"
     inkscape:snap-bbox="true"
     inkscape:bbox-nodes="true"
     inkscape:window-width="1440"
     inkscape:window-height="771"
     inkscape:window-x="0"
     inkscape:window-y="23"
     inkscape:window-maximized="0" />
  <metadata
     id="metadata5">
    <rdf:RDF>
      <cc:Work
         rdf:about="">
        <dc:format>image/svg+xml</dc:format>
        <dc:type
           rdf:resource="http://purl.org/dc/dcmitype/StillImage" />
        <dc:title></dc:title>
      </cc:Work>
    </rdf:RDF>
  </metadata>
  <g
     inkscape:label="Layer 8"
     id="layer8"
     inkscape:groupmode="layer" />
  <g
     style="display:inline"
     inkscape:label="Layer 9"
     id="layer9"
     inkscape:groupmode="layer">
    <rect
       y="0"
       x="0"
       height="200"
       width="200"
       id="rect920"
       style="opacity:1;fill:#1e352f;fill-opacity:1;stroke:none;stroke-width:0.616466;stroke-opacity:1" />
  </g>
  <g
     inkscape:groupmode="layer"
     id="layer2"
     inkscape:label="Layer 2"
     style="display:inline;opacity:0.82" />
  <g
     inkscape:groupmode="layer"
     id="layer3"
     inkscape:label="Layer 3"
     style="display:inline" />
  <g
     inkscape:groupmode="layer"
     id="layer4"
     inkscape:label="Layer 4"
     style="display:inline" />
  <g
     inkscape:groupmode="layer"
     id="layer5"
     inkscape:label="Layer 5"
     style="display:inline" />
  <g
     inkscape:groupmode="layer"
     id="layer6"
     inkscape:label="Layer 6"
     style="display:inline" />
  <g
     inkscape:groupmode="layer"
     id="layer7"
     inkscape:label="Layer 7">
    <g
       transform="translate(9.996019,19.4583)"
       id="g918">
      <path
         style="display:inline;fill:#a6c36f;fill-opacity:1;stroke:none;stroke-width:0.603946px;stroke-linecap:butt;stroke-linejoin:miter;stroke-opacity:1"
         d="M 90.001745,114.17499 135.65693,87.876901 135.65463,35.163264 90.002033,8.8086884 44.351981,35.167745 l 0.0025,52.713636 z"
         id="path1342-7"
         inkscape:connector-curvature="0" />
      <path
         inkscape:connector-curvature="0"
         id="path1330"
         d="M 89.998866,61.545697 110,49.999053 l 19.99887,11.546644 10e-4,23.093357 -20,11.519998 -0.001,-23.093355 z"
         style="display:inline;opacity:0.82;fill:#335145;fill-opacity:1;stroke:none;stroke-width:0.264583px;stroke-linecap:butt;stroke-linejoin:miter;stroke-opacity:1" />
      <path
         inkscape:connector-curvature="0"
         id="path1339"
         d="m 89.998866,61.52 -19.998867,11.547658 0.0011,23.093357 -20,-11.520001 L 50,61.54766 70.001132,50.001016 Z"
         style="display:inline;fill:#828c51;fill-opacity:1;stroke:none;stroke-width:0.264583px;stroke-linecap:butt;stroke-linejoin:miter;stroke-opacity:1" />
      <path
         inkscape:connector-curvature="0"
         id="path1342"
         d="M 89.998866,61.52 110,49.999053 109.999,26.905696 89.999,15.36 70.000133,26.907659 l 0.0011,23.093357 z"
         style="display:inline;fill:#beef9e;fill-opacity:1;stroke:none;stroke-width:0.264583px;stroke-linecap:butt;stroke-linejoin:miter;stroke-opacity:1" />
      <path
         inkscape:connector-curvature="0"
         id="path1345"
         d="M 90.001131,84.641014 110,96.159052 90.001131,107.70671 70.001132,96.186711 Z"
         style="display:inline;fill:#536137;fill-opacity:1;stroke:none;stroke-width:0.264583px;stroke-linecap:butt;stroke-linejoin:miter;stroke-opacity:1" />
      <path
         inkscape:connector-curvature="0"
         id="path1348"
         d="m 110.00087,96.186711 -0.002,-23.121014 -20,-11.545697 0.0024,23.121014 z"
         style="display:inline;opacity:1;fill:#243226;fill-opacity:1;stroke:none;stroke-width:0.264583px;stroke-linecap:butt;stroke-linejoin:miter;stroke-opacity:1" />
      <path
         inkscape:connector-curvature="0"
         id="path1351"
         d="M 89.999999,84.639054 89.99894,61.52 70.000073,73.067658 l 0.0011,23.093357 z"
         style="fill:#414628;fill-opacity:1;stroke:none;stroke-width:0.264583px;stroke-linecap:butt;stroke-linejoin:miter;stroke-opacity:1" />
    </g>
  </g>
  <g
     inkscape:label="Layer 10"
     id="layer10"
     inkscape:groupmode="layer">
    <path
       transform="scale(0.26458333)"
       d="M 333.71875 585.37695 L 333.71875 604.62109 C 331.73071 603.58732 329.8357 602.83067 328.0332 602.35352 C 326.23071 601.84988 324.16272 601.59961 321.83008 601.59961 C 319.25887 601.59961 316.76763 602.12914 314.35547 603.18945 C 311.96982 604.24974 309.87476 605.78624 308.07227 607.80078 C 306.24327 609.86836 304.78602 612.37409 303.69922 615.31641 C 302.63893 618.25869 302.10938 621.61097 302.10938 625.375 C 302.10937 632.61149 303.65842 638.2714 306.75977 642.35352 C 309.88762 646.43563 314.10284 648.47656 319.4043 648.47656 C 322.13454 648.47656 324.66541 647.95956 326.99805 646.92578 C 329.33069 645.892 331.57166 644.44732 333.71875 642.5918 L 333.71875 647.24414 L 341.19336 647.24414 L 341.19336 585.37695 L 333.71875 585.37695 z M 546.95508 585.37695 L 546.95508 604.38281 C 545.1526 603.50808 543.39095 602.79105 541.66797 602.23438 C 539.97152 601.65122 537.78466 601.36133 535.10742 601.36133 C 532.53623 601.36133 529.96574 601.91793 527.39453 603.03125 C 524.82332 604.11804 522.63647 605.65455 520.83398 607.64258 C 518.92545 609.73666 517.41408 612.25495 516.30078 615.19727 C 515.21399 618.11305 514.66992 621.46532 514.66992 625.25586 C 514.66992 632.35981 516.30015 638.00717 519.56055 642.19531 C 522.82092 646.38346 527.16756 648.47656 532.60156 648.47656 C 535.41134 648.47656 537.89004 647.99918 540.03711 647.04492 C 542.18421 646.09067 544.48992 644.60636 546.95508 642.5918 L 546.95508 647.24414 L 561.26953 647.24414 L 561.26953 585.37695 L 546.95508 585.37695 z M 195.39062 588.04102 L 195.39062 647.24414 L 202.74609 647.24414 L 202.74609 594.2832 L 230.81641 647.24414 L 240.55859 647.24414 L 240.55859 588.04102 L 233.20312 588.04102 L 233.20312 636.39062 L 207.59766 588.04102 L 195.39062 588.04102 z M 404.61133 588.04102 L 404.61133 647.24414 L 419.88086 647.24414 L 419.88086 627.96094 L 429.38281 627.96094 C 433.70349 627.96094 437.30797 627.36467 440.19727 626.17188 C 443.11307 624.97903 445.7522 623.21544 448.11133 620.88281 C 449.83431 619.15983 451.15819 617.03966 452.08594 614.52148 C 453.01369 611.97678 453.47852 609.37925 453.47852 606.72852 C 453.47852 603.30908 452.84265 600.38006 451.57031 597.94141 C 450.32448 595.50273 448.50871 593.50142 446.12305 591.9375 C 444.13502 590.63863 441.84186 589.67133 439.24414 589.03516 C 436.67293 588.37248 433.50427 588.04102 429.74023 588.04102 L 404.61133 588.04102 z M 419.88086 599.09375 L 422.50391 599.09375 C 425.0221 599.09375 427.03792 599.13325 428.54883 599.21289 C 430.05973 599.26589 431.60877 599.61188 433.19922 600.24805 C 434.39204 600.72517 435.44056 601.57166 436.3418 602.79102 C 437.24306 603.98383 437.69336 605.41599 437.69336 607.08594 C 437.69336 608.78242 437.4682 610.2271 437.01758 611.41992 C 436.59344 612.58623 435.89092 613.59315 434.91016 614.44141 C 433.77035 615.39566 432.35273 616.03152 430.65625 616.34961 C 428.9863 616.66769 426.85163 616.82812 424.25391 616.82812 L 419.88086 616.82812 L 419.88086 599.09375 z M 481.62891 601.32031 C 478.20947 601.32031 474.79053 601.5996 471.37109 602.15625 C 467.97816 602.68642 465.52653 603.14927 464.01562 603.54688 L 464.01562 614.32227 L 465.32617 614.32227 C 466.49248 613.87162 468.41456 613.23578 471.0918 612.41406 C 473.76904 611.56584 476.28735 611.14258 478.64648 611.14258 C 482.56956 611.14258 485.53817 611.61801 487.55273 612.57227 C 489.56727 613.50001 490.57422 615.19693 490.57422 617.66211 L 490.57422 617.90039 C 486.35957 618.13895 482.29221 618.51004 478.36914 619.01367 C 474.44607 619.51731 471.15855 620.36575 468.50781 621.55859 C 465.8306 622.75141 463.7626 624.38164 462.30469 626.44922 C 460.8468 628.51677 460.11914 631.18101 460.11914 634.44141 C 460.11914 638.52352 461.54932 641.87577 464.41211 644.5 C 467.2749 647.1242 470.8272 648.4375 475.06836 648.4375 C 476.87084 648.4375 478.52816 648.27902 480.03906 647.96094 C 481.54999 647.66936 483.00723 647.20453 484.41211 646.56836 C 485.41938 646.09123 486.49298 645.44281 487.63281 644.62109 C 488.77262 643.79935 489.72739 643.09683 490.49609 642.51367 L 490.49609 647.24414 L 504.68945 647.24414 L 504.68945 616.86719 C 504.68945 611.51273 502.87368 607.58935 499.24219 605.09766 C 495.6372 602.57946 489.76663 601.32031 481.62891 601.32031 z M 273.08398 601.59961 C 266.80176 601.59961 261.80476 603.70722 258.09375 607.92188 C 254.40924 612.11005 252.56641 617.82213 252.56641 625.05859 C 252.56641 632.29508 254.40924 638.00717 258.09375 642.19531 C 261.80476 646.38346 266.80176 648.47656 273.08398 648.47656 C 279.31319 648.47656 284.28312 646.38346 287.99414 642.19531 C 291.70516 638.00717 293.56055 632.29508 293.56055 625.05859 C 293.56055 617.82213 291.70516 612.11005 287.99414 607.92188 C 284.28312 603.70722 279.31319 601.59961 273.08398 601.59961 z M 374.35352 601.59961 C 367.88574 601.59961 362.66359 603.73233 358.6875 608 C 354.73792 612.26769 352.76367 618.03391 352.76367 625.29688 C 352.76367 632.63939 354.83167 638.31186 358.9668 642.31445 C 363.10193 646.29054 368.85364 648.27734 376.22266 648.27734 C 379.11195 648.27734 381.86799 647.92077 384.49219 647.20508 C 387.11641 646.48939 389.68883 645.6013 392.20703 644.54102 L 392.20703 636.39062 L 391.80859 636.39062 C 390.50972 637.55696 388.32287 638.74942 385.24805 639.96875 C 382.19971 641.16157 379.16441 641.75781 376.14258 641.75781 C 373.86295 641.75781 371.76985 641.4389 369.86133 640.80273 C 367.97931 640.16656 366.34908 639.21179 364.9707 637.93945 C 363.53931 636.64058 362.41157 634.98524 361.58984 632.9707 C 360.76812 630.92963 360.35742 628.54276 360.35742 625.8125 L 393.08203 625.8125 L 393.08203 621.75781 C 393.08203 615.31654 391.4518 610.34662 388.19141 606.84766 C 384.95752 603.3487 380.34415 601.59961 374.35352 601.59961 z M 373.95703 607.76172 C 377.93313 607.76172 380.88725 608.83532 382.82227 610.98242 C 384.78387 613.12952 385.77823 616.16482 385.80469 620.08789 L 360.35742 620.08789 C 360.67551 616.58893 362.0139 613.65994 364.37305 611.30078 C 366.7587 608.94163 369.95444 607.76172 373.95703 607.76172 z M 273.08398 608.04102 C 277.08658 608.04102 280.21368 609.44413 282.4668 612.25391 C 284.71991 615.03718 285.8457 619.30653 285.8457 625.05859 C 285.8457 630.67815 284.70736 634.91846 282.42773 637.78125 C 280.17462 640.61751 277.06008 642.03516 273.08398 642.03516 C 269.05488 642.03516 265.91327 640.60495 263.66016 637.74219 C 261.40704 634.85289 260.2793 630.62513 260.2793 625.05859 C 260.2793 619.30653 261.39253 615.03718 263.61914 612.25391 C 265.87226 609.44413 269.02837 608.04102 273.08398 608.04102 z M 323.10156 608.4375 C 324.98358 608.4375 326.72011 608.61049 328.31055 608.95508 C 329.90098 609.29967 331.7042 609.92298 333.71875 610.82422 L 333.71875 636.31055 C 331.83673 637.79497 329.80836 639.01449 327.63477 639.96875 C 325.46117 640.8965 323.31394 641.35938 321.19336 641.35938 C 317.21727 641.35938 314.32788 639.99393 312.52539 637.26367 C 310.7229 634.50693 309.82227 630.49176 309.82227 625.2168 C 309.82227 619.86234 310.98767 615.72635 313.32031 612.81055 C 315.65295 609.89477 318.91342 608.4375 323.10156 608.4375 z M 540.71289 611.81836 C 541.64064 611.81836 542.66207 611.91025 543.77539 612.0957 C 544.88869 612.28125 545.94781 612.58565 546.95508 613.00977 L 546.95508 634.91797 C 545.84178 635.71318 544.5575 636.36355 543.09961 636.86719 C 541.64169 637.34434 540.26369 637.58203 538.96484 637.58203 C 535.62493 637.58203 533.1984 636.60217 531.6875 634.64062 C 530.17657 632.65257 529.42188 629.47135 529.42188 625.09766 C 529.42187 620.93602 530.36211 617.68809 532.24414 615.35547 C 534.12614 612.99631 536.94886 611.81836 540.71289 611.81836 z M 490.49609 626.29102 L 490.49609 635.59375 C 489.3828 636.54801 488.08401 637.31721 486.59961 637.90039 C 485.14169 638.48355 483.69701 638.77539 482.26562 638.77539 C 480.46312 638.77539 479.13729 638.65658 478.28906 638.41797 C 477.44084 638.1529 476.71123 637.75478 476.10156 637.22461 C 475.46534 636.69447 475.06915 636.13784 474.91016 635.55469 C 474.75116 634.97153 474.66992 634.21681 474.66992 633.28906 C 474.66992 631.88416 475.041 630.75643 475.7832 629.9082 C 476.55191 629.03347 477.6526 628.37054 479.08398 627.91992 C 480.25032 627.54882 481.95979 627.23187 484.21289 626.9668 C 486.46602 626.67517 488.56108 626.45001 490.49609 626.29102 z "
       style="font-style:normal;font-variant:normal;font-weight:normal;font-stretch:normal;font-size:21.5451px;line-height:1.25;font-family:Verdana;-inkscape-font-specification:'Verdana Normal';font-variant-ligatures:normal;font-variant-caps:normal;font-variant-numeric:normal;font-variant-east-asian:normal;fill:#a6c36f;fill-opacity:1;stroke:none;stroke-width:2.03577"
       id="path933" />
  </g>
</svg>
